Coordinates
version=1
nRows=11
nColumns=60
inDegrees=yes

Units are S.I. units (second, meters, Newtons, ...)
If the header above contains a line with 'inDegrees', this indicates whether rotational values are in degrees (yes) or radians (no).

endheader
time	pelvis_tilt	pelvis_list	pelvis_rotation	pelvis_tx	pelvis_ty	pelvis_tz	hip_flexion_r	hip_adduction_r	hip_rotation_r	knee_angle_r_beta	knee_angle_r	ankle_angle_r	subtalar_angle_r	mtp_angle_r	hip_flexion_l	hip_adduction_l	hip_rotation_l	knee_angle_l_beta	knee_angle_l	ankle_angle_l	subtalar_angle_l	mtp_angle_l	L5_S1_Flex_Ext	L5_S1_Lat_Bending	L5_S1_axial_rotation	L4_L5_Flex_Ext	L4_L5_Lat_Bending	L4_L5_axial_rotation	L3_L4_Flex_Ext	L3_L4_Lat_Bending	L3_L4_axial_rotation	L2_L3_Flex_Ext	L2_L3_Lat_Bending	L2_L3_axial_rotation	L1_L2_Flex_Ext	L1_L2_Lat_Bending	L1_L2_axial_rotation	L1_T12_Flex_Ext	L1_T12_Lat_Bending	L1_T12_axial_rotation	Abs_r3	Abs_r2	Abs_r1	Abs_t1	Abs_t2	arm_flex_r	arm_add_r	arm_rot_r	elbow_flex_r	pro_sup_r	wrist_flex_r	wrist_dev_r	arm_flex_l	arm_add_l	arm_rot_l	elbow_flex_l	pro_sup_l	wrist_flex_l	wrist_dev_l
      1.88000000	      1.54111993	     -8.40309407	     96.57847361	      0.40634284	      0.88133980	      0.38244347	     36.27374119	     -5.84746000	     -2.66380062	      0.62461137	    -35.78759515	      9.41066541	      0.00000000	      0.00000000	     37.73773502	     -4.72548982	      4.02080545	      0.58044803	    -33.25722229	      7.46322714	      0.00000000	      0.00000000	     -9.85766629	      0.45390547	     -0.03854930	    -18.30667206	      0.60369428	     -0.04095863	    -16.19515994	      1.10362576	     -0.04095863	    -11.26632680	      1.10362576	     -0.03373063	     -9.15382891	      0.92560403	     -0.03132130	     -5.63267052	      0.70309957	     -0.02891197	    -70.41232452	      5.13466946	     -0.21439962	      0.00000000	      0.00000000	     61.51170625	    -20.38958505	     16.63052684	     45.89984985	     68.48802955	     19.73436877	      6.48660717	     68.91042359	    -17.85558105	     33.26720907	     38.74330307	     58.63521699	     21.89808543	      1.12054907
      1.89000000	      1.55261364	     -7.82046283	     96.55119919	      0.40634707	      0.88402133	      0.38034741	     35.06544414	     -5.65343223	     -2.48174347	      0.61085722	    -34.99954059	      9.30103373	      0.00000000	      0.00000000	     36.57086748	     -4.79229604	      4.21692137	      0.56815401	    -32.55282680	      7.43007232	      0.00000000	      0.00000000	     -9.83037187	      0.45904761	     -0.02965674	    -18.25598360	      0.61053332	     -0.03151028	    -16.15031795	      1.11612836	     -0.03151028	    -11.23513201	      1.11612836	     -0.02594965	     -9.12848332	      0.93608989	     -0.02409610	     -5.61707449	      0.71106475	     -0.02224255	    -70.21736324	      5.19283839	     -0.16494188	      0.00000000	      0.00000000	     60.16482813	    -20.64151211	     16.53885523	     46.78114224	     68.24597788	     19.61519346	      6.51005401	     67.52482955	    -18.13268797	     32.76381300	     39.78545060	     58.71908269	     21.69395835	      1.11399342
      1.90000000	      1.55422640	     -7.36557369	     96.52797479	      0.40639312	      0.88638875	      0.37819144	     34.05649234	     -5.55544325	     -2.62435378	      0.59911451	    -34.32673288	      9.26380000	      0.00000000	      0.00000000	     35.60629849	     -4.89807775	      4.13576733	      0.55778007	    -31.95844376	      7.45965853	      0.00000000	      0.00000000	     -9.76591932	      0.45628051	     -0.02701253	    -18.13628877	      0.60685308	     -0.02870081	    -16.04442885	      1.10940044	     -0.02870081	    -11.16146919	      1.10940044	     -0.02363596	     -9.06863268	      0.93044722	     -0.02194768	     -5.58024630	      0.70677851	     -0.02025939	    -69.75698512	      5.16153640	     -0.15023557	      0.00000000	      0.00000000	     58.81355077	    -20.81193323	     16.52670045	     47.28904142	     68.09019399	     19.52692766	      6.55051041	     66.15003733	    -18.31815949	     32.46650007	     40.42703625	     58.81002585	     21.54418202	      1.14060356
      1.91000000	      1.56297534	     -6.65904090	     96.49842027	      0.40635623	      0.88924443	      0.37588767	     32.71214127	     -5.36366070	     -2.46707986	      0.58556343	    -33.55031296	      9.13787421	      0.00000000	      0.00000000	     34.28352204	     -4.98423490	      4.32302661	      0.54564814	    -31.26333554	      7.43069533	      0.00000000	      0.00000000	     -9.75049306	      0.46155811	     -0.02027580	    -18.10764066	      0.61387229	     -0.02154304	    -16.01908505	      1.12223239	     -0.02154304	    -11.14383852	      1.12223239	     -0.01774132	     -9.05430786	      0.94120930	     -0.01647409	     -5.57143173	      0.71495351	     -0.01520685	    -69.64679688	      5.22123766	     -0.11276791	      0.00000000	      0.00000000	     57.40669557	    -21.04324463	     16.32303584	     48.24834966	     67.84235130	     19.35443074	      6.59932616	     64.68732675	    -18.60337590	     31.77049347	     41.55370730	     58.99080867	     21.27590441	      1.18248214
      1.92000000	      1.56983515	     -5.98092131	     96.45492484	      0.40632111	      0.89203113	      0.37352224	     31.41621407	     -5.19923687	     -2.44018131	      0.57286804	    -32.82292110	      9.04229745	      0.00000000	      0.00000000	     33.02126968	     -5.09137831	      4.38832637	      0.53433327	    -30.61504123	      7.44504827	      0.00000000	      0.00000000	     -9.72152520	      0.46307355	     -0.01769627	    -18.05384446	      0.61588782	     -0.01880229	    -15.97149376	      1.12591702	     -0.01880229	    -11.11073116	      1.12591702	     -0.01548424	     -9.02740831	      0.94429958	     -0.01437822	     -5.55487950	      0.71730092	     -0.01327220	    -69.43988238	      5.23838058	     -0.09842134	      0.00000000	      0.00000000	     56.00840496	    -21.19021237	     16.15676349	     49.08128763	     67.59406036	     19.11201859	      6.72014117	     63.20844832	    -18.81937384	     31.07714750	     42.56965833	     59.26669052	     20.94935377	      1.31936991
      1.93000000	      1.57593279	     -5.31993372	     96.39409366	      0.40630589	      0.89477637	      0.37109845	     30.12173626	     -5.03398367	     -2.42440711	      0.55956159	    -32.06051741	      8.95979167	      0.00000000	      0.00000000	     31.74187166	     -5.21040580	      4.42158901	      0.52240705	    -29.93171919	      7.49096251	      0.00000000	      0.00000000	     -9.68196806	      0.46171216	     -0.01635847	    -17.98038289	      0.61407717	     -0.01738088	    -15.90650533	      1.12260694	     -0.01738088	    -11.06552130	      1.12260694	     -0.01431366	     -8.99067554	      0.94152344	     -0.01329126	     -5.53227655	      0.71519214	     -0.01226885	    -69.15732967	      5.22298029	     -0.09098091	      0.00000000	      0.00000000	     54.61789946	    -21.31918405	     16.02831468	     49.80318040	     67.37590676	     18.82137209	      6.89351515	     61.73467083	    -19.04657859	     30.44310387	     43.47862707	     59.60022323	     20.61978517	      1.52818634
      1.94000000	      1.57801116	     -4.91333012	     96.32696135	      0.40630364	      0.89696436	      0.36871127	     29.18679682	     -4.94013211	     -2.59156253	      0.54873649	    -31.44028466	      8.97219628	      0.00000000	      0.00000000	     30.81012878	     -5.33163016	      4.24109034	      0.51246794	    -29.36225027	      7.60420712	      0.00000000	      0.00000000	     -9.57869492	      0.45564160	     -0.01812317	    -17.78859434	      0.60600332	     -0.01925587	    -15.73683789	      1.10784698	     -0.01925587	    -10.94749043	      1.10784698	     -0.01585778	     -8.89477611	      0.92914435	     -0.01472508	     -5.47326628	      0.70578883	     -0.01359238	    -68.41965996	      5.15430888	     -0.10079565	      0.00000000	      0.00000000	     53.24786755	    -21.37001971	     16.12237809	     50.00880385	     67.31915184	     18.73367859	      6.97450819	     60.36047304	    -19.18971147	     30.36615515	     43.77242257	     59.71492850	     20.53502196	      1.61848525
      1.95000000	      1.59929813	     -4.00321861	     96.24428564	      0.40620417	      0.90016820	      0.36600934	     27.52201010	     -4.69685437	     -2.41384736	      0.53253955	    -30.51226885	      8.77933385	      0.00000000	      0.00000000	     29.17723697	     -5.48350365	      4.37243708	      0.49835130	    -28.55342628	      7.64674115	      0.00000000	      0.00000000	     -9.58890762	      0.45671168	     -0.03421311	    -17.80756034	      0.60742653	     -0.03635143	    -15.75361633	      1.11044878	     -0.03635143	    -10.95916252	      1.11044878	     -0.02993647	     -8.90425962	      0.93132646	     -0.02779815	     -5.47910181	      0.70744639	     -0.02565983	    -68.49260824	      5.16641385	     -0.19028307	      0.00000000	      0.00000000	     51.92021411	    -21.45222559	     16.04398096	     51.28806571	     66.46382608	     16.36461938	      8.69702677	     58.47607924	    -19.48226016	     28.41617948	     45.61994771	     62.17551723	     18.74449277	      3.78634571
      1.96000000	      1.57973512	     -3.31782786	     96.13051875	      0.40616839	      0.90286577	      0.36338051	     26.17524264	     -4.52797368	     -2.26375745	      0.51848782	    -29.70716369	      8.72875056	      0.00000000	      0.00000000	     27.80318309	     -5.58874605	      4.40552680	      0.48507948	    -27.79300715	      7.75950636	      0.00000000	      0.00000000	     -9.53614619	      0.45077613	     -0.02606433	    -17.70957709	      0.59953226	     -0.02769335	    -15.66693457	      1.09601709	     -0.02769335	    -10.89886148	      1.09601709	     -0.02280629	     -8.85526535	      0.91922269	     -0.02117726	     -5.44895393	      0.69825223	     -0.01954824	    -68.11573860	      5.09926977	     -0.14496196	      0.00000000	      0.00000000	     50.47671486	    -21.60372761	     15.92014030	     51.95869339	     66.39012109	     16.24918087	      8.67795612	     57.08653072	    -19.70024125	     28.17500039	     46.32023280	     62.15125316	     18.77437647	      3.76605405
      1.97000000	      1.55839292	     -2.58368912	     96.01373786	      0.40607911	      0.90557960	      0.36065511	     24.78848461	     -4.39019753	     -2.25595781	      0.50501972	    -28.93549852	      8.63492636	      0.00000000	      0.00000000	     26.40151092	     -5.71273693	      4.30586807	      0.47265149	    -27.08093537	      7.83130609	      0.00000000	      0.00000000	     -9.48977081	      0.44480433	     -0.02430664	    -17.62345337	      0.59158976	     -0.02582580	    -15.59074446	      1.08149725	     -0.02582580	    -10.84585906	      1.08149725	     -0.02126831	     -8.81220117	      0.90704499	     -0.01974914	     -5.42245504	      0.68900191	     -0.01822998	    -67.78448391	      5.03171553	     -0.13518624	      0.00000000	      0.00000000	     49.02417094	    -21.72686446	     15.72698599	     52.74724498	     66.29117906	     16.05169322	      8.73829999	     55.57063943	    -19.92682303	     27.61149449	     47.21492465	     62.19583520	     18.75045716	      3.76633920
      1.98000000	      1.53919360	     -1.94444360	     95.88058486	      0.40599795	      0.90808764	      0.35794702	     23.50950444	     -4.24466573	     -2.12775595	      0.49141651	    -28.15609200	      8.56061080	      0.00000000	      0.00000000	     25.08680004	     -5.81173561	      4.30937370	      0.45999842	    -26.35596800	      7.92809010	      0.00000000	      0.00000000	     -9.42340271	      0.43730862	     -0.02422886	    -17.50020118	      0.58162046	     -0.02574317	    -15.48170832	      1.06327218	     -0.02574317	    -10.77000696	      1.06327218	     -0.02120025	     -8.75057176	      0.89175974	     -0.01968595	     -5.38453231	      0.67739105	     -0.01817165	    -67.31042325	      4.94692256	     -0.13475366	      0.00000000	      0.00000000	     47.59584582	    -21.83403609	     15.60917450	     53.42534509	     66.20651372	     15.88141263	      8.83767376	     54.04898373	    -20.15725057	     27.10274394	     48.01076140	     62.30443240	     18.71160634	      3.78344961
